PathFileType	4	(X/Y/Z)	D:\TRACE\spot_10-12-23\spot_arm_motion_2_4-platform.trc
DataRate	CameraRate	NumFrames	NumMarkers	Units	OrigDataRate	OrigDataStartFrame	OrigNumFrames
100.00	100.00	      67	5	mm	100.00	876	      7000
Frame#	Time	Left_Front			Right_Front			Left_Aft			Right_Aft			Post			
		X1	Y1	Z1	X2	Y2	Z2	X3	Y3	Z3	X4	Y4	Z4	X5	Y5	Z5	

876	8.750	-761.43335	60.53356	-626.45551	811.32544	64.76846	-619.32996	-677.80579	-32.79372	508.05673	739.27209	-34.80561	593.62976	21.35229	821.82074	-882.99756	
877	8.760	-762.34906	59.51001	-626.48834	810.29163	63.81146	-619.76868	-679.08282	-32.15095	507.81610	738.28754	-34.14163	593.40533	20.14500	820.84064	-884.06311	
878	8.770	-763.52863	58.84105	-626.84558	809.17029	63.26004	-620.11096	-680.14648	-31.58786	507.41296	737.20294	-33.29380	593.36908	19.51309	819.40314	-885.18610	
879	8.780	-764.43512	58.02496	-627.16644	808.16809	62.19257	-620.31232	-681.12549	-30.93374	507.27682	736.34259	-32.74422	593.23627	18.22853	818.27374	-886.57947	
880	8.790	-765.52032	56.96609	-627.36078	807.42426	61.32666	-620.64020	-682.20380	-30.35055	507.07275	735.28949	-32.10264	592.92542	42.00028	742.78656	-885.81097	
881	8.800	-766.49048	56.21771	-627.75775	806.15771	60.44021	-620.85309	-683.11865	-29.84691	506.87186	734.08844	-31.11199	592.82556	16.23707	815.82928	-889.30048	
882	8.810	-767.56720	55.14800	-628.08905	805.05438	59.51400	-621.31281	-684.34570	-28.93793	506.63162	733.10962	-30.46315	592.78448	14.94296	814.42096	-890.82483	
883	8.820	-768.61353	54.33884	-628.30127	803.99768	58.67574	-621.63855	-685.21246	-28.29394	506.52658	731.83594	-29.79860	592.54279	14.09690	813.23938	-892.10345	
884	8.830	-769.65027	53.30681	-628.60303	802.92218	57.72480	-621.82031	-686.32489	-27.66735	506.34253	730.88959	-28.81598	592.40857	13.34974	811.90692	-893.77002	
885	8.840	-770.80249	52.45314	-628.94489	801.77429	56.75665	-622.07642	-687.58295	-26.79812	506.06943	729.92395	-28.08778	592.18268	11.73134	810.49957	-895.35034	
886	8.850	-771.82092	51.19661	-629.25378	800.80029	55.43686	-622.37769	-688.64832	-26.36956	506.03549	728.69788	-27.23325	592.02295	10.89814	808.97833	-896.55499	
887	8.860	-772.97443	50.29901	-629.59094	799.67145	54.64742	-622.71393	-689.84271	-25.52891	505.80118	727.79401	-26.36370	591.91052	9.84395	807.50635	-898.23230	
888	8.870	-774.12842	49.21678	-629.88440	798.68073	53.52322	-622.93964	-690.90222	-24.84094	505.72238	726.45538	-25.62014	591.67297	8.58600	806.04077	-899.79303	
889	8.880	-775.11481	48.24854	-630.35638	797.54053	52.40163	-623.39545	-691.81085	-23.88421	505.43484	725.60797	-24.51332	591.54218	7.80470	804.53912	-901.17865	
890	8.890	-776.08820	46.99886	-630.49536	796.42877	51.43663	-623.84546	-692.86804	-23.21379	505.29535	724.59174	-23.51146	591.22241	6.54168	802.88507	-902.60260	
891	8.900	-777.29651	45.75380	-630.87689	795.27881	50.26097	-624.13525	-694.07172	-22.42853	504.94128	723.36969	-22.62173	590.95782	5.30712	801.23273	-904.31738	
892	8.910	-778.49591	44.76183	-631.34503	794.18103	48.95340	-624.34247	-695.14081	-21.64549	504.78253	722.28619	-21.76071	590.83698	4.18027	799.47583	-905.86945	
893	8.920	-779.67499	43.63388	-631.51416	793.10278	47.79519	-624.66754	-696.30615	-20.76543	504.44821	720.75110	-20.86318	590.45105	28.23664	725.75031	-904.36151	
894	8.930	-780.76953	42.21784	-631.95667	791.84961	46.61899	-625.21576	-697.57159	-19.87162	504.49966	719.89459	-19.83455	590.32819	2.00248	796.32532	-909.18927	
895	8.940	-781.89227	41.32572	-632.49628	790.76642	45.60943	-625.46063	-698.44305	-19.07457	504.12973	718.68604	-18.85092	590.00153	0.97211	794.69574	-911.13141	
896	8.950	-782.92859	40.06893	-632.62769	789.75592	44.24190	-625.76611	-699.66730	-18.15219	503.90903	717.63135	-17.68594	589.75836	-0.38175	792.80957	-912.91199	
897	8.960	-783.97247	38.45670	-632.89819	788.56128	43.03574	-626.17639	-700.69110	-17.56783	503.75888	716.54388	-16.69511	589.65814	-1.02946	790.96722	-914.72058	
898	8.970	-785.31781	37.38825	-633.50244	787.29736	41.63667	-626.65656	-702.28308	-16.27354	503.17160	715.33258	-15.58309	589.30450	-2.36610	789.22070	-916.54504	
899	8.980	-786.54150	36.50274	-633.76105	786.31433	40.55694	-626.90680	-703.12183	-15.54424	502.99683	714.20624	-14.69117	589.11450	-3.21092	787.44159	-918.39014	
900	8.990	-787.46497	34.87570	-634.07013	785.27838	39.24972	-627.24915	-704.34320	-14.54308	502.68246	712.97040	-13.58536	588.77344	4.92241	707.81555	-932.74481	
901	9.000	-788.53595	33.33788	-634.54846	784.07190	38.07310	-627.57837	-705.50867	-13.71191	502.51337	711.87799	-12.50712	588.54224	-5.77269	783.78394	-922.19617	
902	9.010	-789.92426	32.25686	-634.95135	782.84290	36.44187	-628.06329	-706.75409	-12.74444	502.05124	710.72449	-11.40638	588.31519	-6.62343	782.01288	-923.84351	
903	9.020	-790.95697	30.96434	-635.25952	781.72852	35.27405	-628.35175	-707.77606	-11.76677	501.81946	709.55975	-10.30506	588.06232	-8.05387	779.98828	-925.79181	
904	9.030	-792.12573	29.70951	-635.73340	780.61218	33.90666	-628.86780	-708.91858	-10.80731	501.64120	708.56372	-9.30021	587.81659	-9.05225	777.93799	-927.80511	
905	9.040	-793.16791	28.22972	-636.10950	779.69904	32.76641	-628.86053	-710.00293	-9.86702	501.22595	707.27521	-8.09527	587.27155	-10.04512	776.13983	-929.40088	
906	9.050	-794.31842	26.84376	-636.22772	778.48859	31.29422	-629.41760	-711.10419	-9.05305	501.00095	706.17444	-7.14119	587.03125	-11.33356	774.36554	-931.17554	
907	9.060	-795.44916	25.49246	-636.63251	777.27930	29.80523	-629.92279	-712.15704	-8.11519	500.60626	705.14539	-5.89506	586.79926	-12.48806	772.21771	-933.16797	
908	9.070	-796.54761	24.25018	-637.21667	776.27997	28.43344	-630.28577	-713.40906	-6.97783	500.56805	703.95392	-4.89052	586.54865	-13.39671	770.21301	-935.14178	
909	9.080	-797.62653	22.79547	-637.54999	775.00916	26.95258	-630.49951	-714.32587	-6.40994	500.31836	702.91571	-3.64261	586.34009	-14.73074	768.26318	-937.15411	
910	9.090	-798.69379	21.20385	-637.71552	773.93866	25.92277	-631.00610	-715.72589	-5.16492	499.58704	701.63519	-2.58315	585.93536	-15.73474	765.98157	-938.93073	
911	9.100	-800.11560	20.10633	-638.17230	772.85889	24.29168	-631.10291	-716.65454	-4.27165	499.52448	700.65216	-1.41722	585.67944	-16.87754	764.08856	-940.85516	
912	9.110	-800.93768	18.58197	-638.59784	771.78467	22.89690	-631.60266	-718.02679	-3.02628	499.11600	699.49951	-0.28514	585.38214	-18.01184	761.96558	-942.88428	
913	9.120	-802.07837	17.21824	-639.01465	770.79559	21.62835	-632.09290	-718.99890	-2.23893	498.89133	698.49109	0.89335	585.12720	-19.08011	759.94690	-944.92548	
914	9.130	-803.09119	15.69945	-639.26306	769.41168	19.88910	-632.43500	-720.02118	-1.35127	498.57220	697.39850	2.09908	584.63580	-20.08543	757.87439	-946.90637	
915	9.140	-804.24152	14.21999	-639.64911	768.39777	18.73058	-632.69513	-721.13776	-0.33757	498.16953	696.20300	3.28570	584.30798	-21.16573	755.77844	-948.72821	
916	9.150	-805.20978	12.81949	-640.03638	767.57520	17.28389	-633.03510	-722.08881	0.75564	498.01498	695.18768	4.38705	583.95789	-22.17007	753.83301	-950.80585	
917	9.160	-806.38214	11.75073	-640.38074	766.53394	16.08682	-633.35138	-723.28656	1.80298	497.50278	694.02075	5.51539	583.69794	-23.29906	751.61444	-952.73645	
918	9.170	-807.43646	10.00734	-640.68512	765.29163	14.45053	-633.84180	-724.32385	2.70353	497.29556	693.15887	6.70862	583.45905	-24.29943	749.65387	-954.86426	
919	9.180	-808.22906	8.39896	-641.17670	764.20471	12.85863	-634.32635	-725.42792	3.67140	496.87662	692.04791	7.85227	583.08374	-1.00340	717.97839	-979.13983	
920	9.190	-809.57343	7.14345	-641.38379	763.20453	11.66138	-634.38531	-726.32654	4.67629	496.69583	691.00928	9.08988	582.64728	-8.15178	723.39246	-975.27234	
921	9.200	-810.34851	5.66937	-641.72937	762.22382	10.07306	-634.67706	-727.38818	5.62747	496.18106	690.00745	10.06699	582.32666	-27.33908	743.29865	-960.45422	
922	9.210	-811.65466	4.67995	-642.06757	761.42889	8.85945	-635.13898	-728.48193	6.53337	495.75485	688.75494	11.30554	581.94897	-28.41553	741.04688	-962.36774	
923	9.220	-812.60376	3.15090	-642.33472	760.05804	7.39412	-635.66089	-729.50909	7.49357	495.34222	688.04083	12.44157	581.62268	-29.01198	738.98553	-964.09485	
924	9.230	-813.20038	1.28177	-642.72937	759.16980	5.95848	-635.94543	-730.30444	8.53156	495.18552	687.07227	13.67923	581.33063	-30.11262	736.82898	-965.92706	
925	9.240	-814.42786	0.25684	-643.03680	758.49280	4.42976	-636.14203	-731.27808	9.56574	494.81497	686.01489	14.71353	580.91351	-31.43142	734.73535	-967.87598	
926	9.250	-815.39752	-1.11635	-643.44098	757.49750	3.18470	-636.39490	-732.28986	10.41302	494.46994	685.16516	15.77352	580.61627	-32.18882	732.64850	-969.61609	
927	9.260	-816.34100	-2.72161	-643.73120	756.19543	1.75237	-636.79327	-733.15271	11.28693	494.10809	684.07892	16.91997	580.27008	-32.90389	730.57434	-971.43317	
928	9.270	-817.19855	-4.10589	-644.03778	755.54889	0.20103	-637.32916	-734.15417	12.41739	493.77249	683.32849	18.13724	579.97491	-34.07483	728.61047	-973.46252	
929	9.280	-817.92822	-5.48739	-644.34094	754.60205	-1.10675	-637.42261	-734.86389	13.31717	493.52298	682.57104	19.41567	579.53186	-34.71483	726.48053	-975.31097	
930	9.290	-818.69348	-6.98782	-644.64117	753.89722	-2.66225	-637.70483	-735.75299	14.21430	492.92273	681.37927	20.22055	579.16254	-35.49304	724.38190	-977.15216	
931	9.300	-819.92969	-8.22321	-644.89221	753.05139	-3.77681	-637.92853	-736.79742	15.19675	492.60638	680.67621	21.39083	578.86542	-36.52201	722.23749	-978.94794	
932	9.310	-820.72742	-9.35152	-645.35382	752.03101	-5.34891	-638.51489	-737.43402	15.96696	492.36728	679.96625	22.46466	578.52399	-37.65611	720.15106	-980.77466	
933	9.320	-821.38373	-10.81487	-645.48792	751.46301	-6.44796	-638.59937	-738.37433	17.17345	491.89743	678.95032	23.73438	578.18060	-38.55550	718.20276	-982.50653	
934	9.330	-822.20026	-12.22346	-645.73828	750.45520	-7.95245	-638.70294	-739.02570	17.80931	491.78140	678.34161	24.66763	577.93408	-39.12999	716.23199	-984.28400	
935	9.340	-822.82904	-13.62726	-646.14124	749.86060	-9.12840	-639.21655	-740.02368	18.91111	491.31476	677.56061	25.63428	577.50439	-39.78589	714.30237	-986.02539	
936	9.350	-823.53534	-15.19397	-646.35083	749.06342	-10.58907	-639.35974	-740.67114	19.47796	491.11105	676.60577	26.71181	577.04675	-40.48594	712.17908	-987.59198	
937	9.360	-824.30139	-16.36006	-646.62006	748.40704	-11.78865	-639.76764	-741.42896	20.53268	490.61948	675.94946	27.71918	576.72552	-41.23966	710.20325	-989.60992	
938	9.370	-825.11505	-17.42242	-646.99115	747.56805	-13.19046	-640.07654	-741.96490	21.46241	490.65326	675.43121	28.97034	576.46625	-41.79822	708.29755	-990.92413	
939	9.380	-825.66522	-19.06006	-647.20117	746.76953	-14.35571	-640.43524	-742.54559	22.33297	490.10678	674.64435	29.87426	576.07349	13.72080	665.18134	-1011.57422	
940	9.390	-826.41241	-20.15600	-647.48438	746.34314	-15.57371	-640.62665	-743.33673	23.19287	489.75903	673.98303	30.92749	575.65991	13.78517	665.59515	-1010.78003	
941	9.400	-826.83154	-21.40919	-647.55994	745.88934	-17.09274	-640.69482	-743.73816	23.93083	489.34314	673.54706	31.89181	575.48083	-43.54501	702.39673	-995.92621	
942	9.410	-827.36884	-22.76853	-647.81537	745.24408	-18.34940	-640.77789	-744.48877	24.95560	488.91458	673.06787	32.84871	575.16272	-44.44505	700.55914	-997.36609	
